<?xml version="1.0" encoding="UTF-8" standalone="no"?>
<!-- Created with Inkscape (http://www.inkscape.org/) -->

<svg
   xmlns:dc="http://purl.org/dc/elements/1.1/"
   xmlns:cc="http://creativecommons.org/ns#"
   xmlns:rdf="http://www.w3.org/1999/02/22-rdf-syntax-ns#"
   xmlns:svg="http://www.w3.org/2000/svg"
   xmlns="http://www.w3.org/2000/svg"
   xmlns:sodipodi="http://sodipodi.sourceforge.net/DTD/sodipodi-0.dtd"
   xmlns:inkscape="http://www.inkscape.org/namespaces/inkscape"
   width="48"
   height="48"
   id="svg2"
   version="1.1"
   inkscape:version="0.48.2 r9819"
   sodipodi:docname="logo.svg">
  <defs
     id="defs4">
    <marker
       inkscape:stockid="Arrow1Send"
       orient="auto"
       refY="0.0"
       refX="0.0"
       id="Arrow1Send"
       style="overflow:visible;">
      <path
         id="path4047"
         d="M 0.0,0.0 L 5.0,-5.0 L -12.5,0.0 L 5.0,5.0 L 0.0,0.0 z "
         style="fill-rule:evenodd;stroke:#000000;stroke-width:1.0pt;marker-start:none;"
         transform="scale(0.2) rotate(180) translate(6,0)" />
    </marker>
    <marker
       inkscape:stockid="Arrow2Mend"
       orient="auto"
       refY="0.0"
       refX="0.0"
       id="Arrow2Mend"
       style="overflow:visible;">
      <path
         id="path4059"
         style="font-size:12.0;fill-rule:evenodd;stroke-width:0.62500000;stroke-linejoin:round;"
         d="M 8.7185878,4.0337352 L -2.2072895,0.016013256 L 8.7185884,-4.0017078 C 6.9730900,-1.6296469 6.9831476,1.6157441 8.7185878,4.0337352 z "
         transform="scale(0.6) rotate(180) translate(0,0)" />
    </marker>
    <inkscape:path-effect
       effect="envelope"
       id="path-effect4023"
       is_visible="true"
       yy="true"
       xx="true"
       bendpath1="m -1.0976228,-6.0831705 6.5929679,3.3103314"
       bendpath2="M 6.3243352,-1.6553291 2.1894012,4.1834018"
       bendpath3="m -6.4285716,6.0357142 13.9285717,0"
       bendpath4="m -6.0377388,-6.1613038 c 2.0618852,3.3827189 1.5942937,6.50476429 -3.6380693,9.7416608"
       bendpath4-nodetypes="cc"
       bendpath2-nodetypes="cc"
       bendpath1-nodetypes="cc" />
    <inkscape:path-effect
       effect="envelope"
       id="path-effect4021"
       is_visible="true"
       yy="true"
       xx="true"
       bendpath1="m -6.4285716,-5.2142858 13.9285717,0"
       bendpath2="m 7.5000001,-5.2142858 0,11.25"
       bendpath3="M -6.4285716,8.3668355 6.958847,4.8701535"
       bendpath4="m -6.7893404,-5.505676 c 2.8013355,4.8679715 3.9997193,9.9442842 -0.5411531,15.766548"
       bendpath4-nodetypes="cc"
       bendpath3-nodetypes="cc" />
    <inkscape:path-effect
       effect="envelope"
       id="path-effect4019"
       is_visible="true"
       yy="true"
       xx="true"
       bendpath1="M -6.4285716,-5.2142858 4.6314383,-5.0480857"
       bendpath2="M 9.741064,-4.5494855 8.127498,7.9885649"
       bendpath3="M -6.4285716,6.0357142 7.6792852,1.5067625"
       bendpath4="m -6.4285716,-5.2142858 c 2.2539424,3.8189137 0.833958,7.525498 0,11.25"
       bendpath1-nodetypes="cc"
       bendpath2-nodetypes="cc"
       bendpath3-nodetypes="cc"
       bendpath4-nodetypes="cc" />
    <inkscape:path-effect
       effect="envelope"
       id="path-effect4017"
       is_visible="true"
       yy="true"
       xx="true"
       bendpath1="M -6.4283915,-5.2142858 11.450368,-4.0511752"
       bendpath2="m 7.5000067,-5.2142858 0,11.25"
       bendpath3="m -6.4283915,6.0357142 13.9283982,0"
       bendpath4="m -6.4283915,-5.2142858 0,11.25"
       bendpath1-nodetypes="cc" />
    <inkscape:path-effect
       effect="bend_path"
       id="path-effect4015"
       is_visible="true"
       bendpath="m -6.4285716,0.41071418 c 0,0 4.6428572,0 6.96428585,0 2.32142865,0 6.96428585,0 6.96428585,0"
       prop_scale="1"
       scale_y_rel="false"
       vertical="false"
       bendpath-nodetypes="czc" />
    <inkscape:path-effect
       effect="bend_path"
       id="path-effect3896"
       is_visible="true"
       bendpath="m 6.6225117,10.546967 c 0,0 0.5578951,-0.02475 7.3715603,-0.5854065 6.813665,-0.5606533 6.157421,-4.1466284 6.157421,-4.1466284"
       prop_scale="1"
       scale_y_rel="false"
       vertical="false"
       bendpath-nodetypes="czc" />
    <marker
       inkscape:stockid="Arrow2Mend"
       orient="auto"
       refY="0"
       refX="0"
       id="Arrow2Mend-2"
       style="overflow:visible">
      <path
         inkscape:connector-curvature="0"
         id="path4059-2"
         style="font-size:12px;fill-rule:evenodd;stroke-width:0.625;stroke-linejoin:round"
         d="M 8.7185878,4.0337352 -2.2072895,0.01601326 8.7185884,-4.0017078 c -1.7454984,2.3720609 -1.7354408,5.6174519 -6e-7,8.035443 z"
         transform="scale(-0.6,-0.6)" />
    </marker>
    <marker
       inkscape:stockid="Arrow2Mend"
       orient="auto"
       refY="0"
       refX="0"
       id="Arrow2Mend-6"
       style="overflow:visible">
      <path
         inkscape:connector-curvature="0"
         id="path4059-8"
         style="font-size:12px;fill-rule:evenodd;stroke-width:0.625;stroke-linejoin:round"
         d="M 8.7185878,4.0337352 -2.2072895,0.01601326 8.7185884,-4.0017078 c -1.7454984,2.3720609 -1.7354408,5.6174519 -6e-7,8.035443 z"
         transform="scale(-0.6,-0.6)" />
    </marker>
    <inkscape:path-effect
       effect="bend_path"
       id="path-effect4015-7"
       is_visible="true"
       bendpath="m -6.4285716,0.41071418 c 0,0 4.6428572,0 6.96428585,0 2.32142865,0 6.96428585,0 6.96428585,0"
       prop_scale="1"
       scale_y_rel="false"
       vertical="false"
       bendpath-nodetypes="czc" />
    <inkscape:path-effect
       effect="envelope"
       id="path-effect4017-6"
       is_visible="true"
       yy="true"
       xx="true"
       bendpath1="M -6.4283915,-5.2142858 11.450368,-4.0511752"
       bendpath2="m 7.5000067,-5.2142858 0,11.25"
       bendpath3="m -6.4283915,6.0357142 13.9283982,0"
       bendpath4="m -6.4283915,-5.2142858 0,11.25"
       bendpath1-nodetypes="cc" />
    <inkscape:path-effect
       effect="envelope"
       id="path-effect4019-1"
       is_visible="true"
       yy="true"
       xx="true"
       bendpath1="M -6.6217249,-5.4516722 4.1983816,-4.4690249"
       bendpath2="M 9.741064,-4.5494855 6.9791769,10.089773"
       bendpath3="M -6.4285716,6.0357142 7.6792852,1.5067625"
       bendpath4="m -6.4285716,-5.2142858 c 2.2539424,3.8189137 0.833958,7.525498 0,11.25"
       bendpath1-nodetypes="cc"
       bendpath2-nodetypes="cc"
       bendpath3-nodetypes="cc"
       bendpath4-nodetypes="cc" />
    <inkscape:path-effect
       effect="envelope"
       id="path-effect4021-8"
       is_visible="true"
       yy="true"
       xx="true"
       bendpath1="M -2.3769304,-3.5539373 0.72555158,-5.1430749"
       bendpath2="m 7.5000001,-5.2142858 0,11.25"
       bendpath3="M -6.4285716,8.3668355 6.958847,4.8701535"
       bendpath4="m -6.7893404,-5.505676 c 2.8013355,4.8679715 3.9997193,9.9442842 -0.5411531,15.766548"
       bendpath4-nodetypes="cc"
       bendpath3-nodetypes="cc"
       bendpath1-nodetypes="cc" />
    <inkscape:path-effect
       effect="envelope"
       id="path-effect4023-9"
       is_visible="true"
       yy="true"
       xx="true"
       bendpath1="m -1.0976228,-6.0831705 6.5929679,3.3103314"
       bendpath2="M 6.3243352,-1.6553291 2.1894012,4.1834018"
       bendpath3="m -6.4285716,6.0357142 13.9285717,0"
       bendpath4="m -6.0377388,-6.1613038 c 2.0618852,3.3827189 1.5942937,6.50476429 -3.6380693,9.7416608"
       bendpath4-nodetypes="cc"
       bendpath2-nodetypes="cc"
       bendpath1-nodetypes="cc" />
    <marker
       inkscape:stockid="Arrow2Mend"
       orient="auto"
       refY="0"
       refX="0"
       id="Arrow2Mend-23"
       style="overflow:visible">
      <path
         inkscape:connector-curvature="0"
         id="path4059-3"
         style="font-size:12px;fill-rule:evenodd;stroke-width:0.625;stroke-linejoin:round"
         d="M 8.7185878,4.0337352 -2.2072895,0.01601326 8.7185884,-4.0017078 c -1.7454984,2.3720609 -1.7354408,5.6174519 -6e-7,8.035443 z"
         transform="scale(-0.6,-0.6)" />
    </marker>
    <marker
       inkscape:stockid="Arrow2Mend"
       orient="auto"
       refY="0"
       refX="0"
       id="Arrow2Mend-1"
       style="overflow:visible">
      <path
         inkscape:connector-curvature="0"
         id="path4059-1"
         style="font-size:12px;fill-rule:evenodd;stroke-width:0.625;stroke-linejoin:round"
         d="M 8.7185878,4.0337352 -2.2072895,0.01601326 8.7185884,-4.0017078 c -1.7454984,2.3720609 -1.7354408,5.6174519 -6e-7,8.035443 z"
         transform="scale(-0.6,-0.6)" />
    </marker>
    <marker
       inkscape:stockid="Arrow2Mend"
       orient="auto"
       refY="0"
       refX="0"
       id="Arrow2Mend-8"
       style="overflow:visible">
      <path
         inkscape:connector-curvature="0"
         id="path4059-7"
         style="font-size:12px;fill-rule:evenodd;stroke-width:0.625;stroke-linejoin:round"
         d="M 8.7185878,4.0337352 -2.2072895,0.01601326 8.7185884,-4.0017078 c -1.7454984,2.3720609 -1.7354408,5.6174519 -6e-7,8.035443 z"
         transform="scale(-0.6,-0.6)" />
    </marker>
    <inkscape:path-effect
       effect="envelope"
       id="path-effect4019-1-9"
       is_visible="true"
       yy="true"
       xx="true"
       bendpath1="M -6.4285716,-5.2142858 4.6314383,-5.0480857"
       bendpath2="M 9.741064,-4.5494855 6.9791769,10.089773"
       bendpath3="M -6.4285716,6.0357142 7.6792852,1.5067625"
       bendpath4="m -6.4285716,-5.2142858 c 2.2539424,3.8189137 0.833958,7.525498 0,11.25"
       bendpath1-nodetypes="cc"
       bendpath2-nodetypes="cc"
       bendpath3-nodetypes="cc"
       bendpath4-nodetypes="cc" />
  </defs>
  <sodipodi:namedview
     id="base"
     pagecolor="#ffffff"
     bordercolor="#666666"
     borderopacity="1.0"
     inkscape:pageopacity="0.0"
     inkscape:pageshadow="2"
     inkscape:zoom="3.959798"
     inkscape:cx="3.556436"
     inkscape:cy="41.126774"
     inkscape:document-units="px"
     inkscape:current-layer="layer1"
     showgrid="false"
     showguides="true"
     inkscape:guide-bbox="true"
     inkscape:window-width="1280"
     inkscape:window-height="920"
     inkscape:window-x="-8"
     inkscape:window-y="-8"
     inkscape:window-maximized="1" />
  <metadata
     id="metadata7">
    <rdf:RDF>
      <cc:Work
         rdf:about="">
        <dc:format>image/svg+xml</dc:format>
        <dc:type
           rdf:resource="http://purl.org/dc/dcmitype/StillImage" />
        <dc:title></dc:title>
      </cc:Work>
    </rdf:RDF>
  </metadata>
  <g
     inkscape:label="Layer 1"
     inkscape:groupmode="layer"
     id="layer1"
     transform="translate(0,-1004.3622)">
    <path
       transform="matrix(0.03347548,-2.8416018,3.7908441,0.0521376,24.468679,1029.6351)"
       d="m 7.5000001,0.41071418 a 6.9642859,5.625 0 1 1 -13.9285717,0 6.9642859,5.625 0 1 1 13.9285717,0 z"
       sodipodi:ry="5.625"
       sodipodi:rx="6.9642859"
       sodipodi:cy="0.41071418"
       sodipodi:cx="0.53571427"
       id="path3900-5-1-7-1-7"
       style="color:#000000;fill:#abe4ff;fill-opacity:1;stroke:#464646;stroke-width:0.1627593;stroke-miterlimit:4;stroke-opacity:1;stroke-dasharray:none;marker:none;visibility:visible;display:inline;overflow:visible;enable-background:accumulate"
       sodipodi:type="arc"
       inkscape:path-effect="#path-effect4015;#path-effect4017" />
    <path
       transform="matrix(0.02745255,-1.9994211,2.6372315,0.03112064,26.191216,1030.97)"
       d="m 8.3684418,2.7825414 c -0.00627,0.033048 -0.012947,0.065739 -0.020032,0.098067 C 8.1335758,3.8608688 7.5500297,4.4822302 6.9064338,4.6908914 6.2628379,4.8995526 5.5740633,4.6956945 4.9430422,4.3715464 4.3120212,4.0473983 3.7271747,3.6399405 3.0555143,3.488392 2.383854,3.3368435 1.6015676,3.4585662 0.63548573,3.7688377 -0.33059611,4.0791092 -1.3800606,4.4962496 -2.3134213,4.6818765 -3.246782,4.8675034 -4.0440537,4.8121986 -4.5632398,4.4603931 -5.0824259,4.1085877 -5.3207256,3.4756148 -5.378773,2.7505806 c -0.058047,-0.7250342 0.040391,-1.5141648 0.1123151,-2.30379509 0.00237,-0.0260477 0.00471,-0.0521241 0.007,-0.0782326 0.070211,-0.79812381 0.081759,-1.56644535 0.1493473,-2.32969505 0.067588,-0.7632498 0.2122946,-1.5089863 0.531554,-2.0580691 0.3192594,-0.5490828 0.8094242,-0.8738175 1.3931999,-0.9804103 0.5837758,-0.1065928 1.231694,-0.025449 1.9794307,0.041894 0.74773675,0.067342 1.56587547,0.096175 2.5745241,0.2593288 1.0086486,0.1631538 2.216904,0.5064768 3.3794418,1.1934116 1.1625378,0.6869349 2.2412821,1.7163981 2.9058922,2.87008157 0.6646101,1.15368345 0.9060492,2.40717603 0.7145052,3.41744723 0,0 0,0 0,0 z"
       sodipodi:ry="6.4722295"
       sodipodi:rx="6.9642859"
       sodipodi:cy="0.41071418"
       sodipodi:cx="0.53571427"
       id="path3900-5-1-1-9"
       style="color:#000000;fill:#ddffab;fill-opacity:1;stroke:#464646;stroke-width:0.23263179;stroke-miterlimit:4;stroke-opacity:1;stroke-dasharray:none;marker:none;visibility:visible;display:inline;overflow:visible;enable-background:accumulate"
       sodipodi:type="arc"
       inkscape:path-effect="#path-effect4019-1" />
    <path
       transform="matrix(0.01636779,-1.2858839,1.5571032,0.01982019,24.137671,1030.4194)"
       d="M 7.5078324,0.41594126 C 7.5071695,1.1916128 7.2141609,1.9361185 6.7817495,2.6892085 6.3493382,3.4422985 5.7643248,4.1744858 5.0930743,4.7347613 4.4218237,5.2950368 3.6693614,5.6701581 2.8652248,5.9337738 2.0610883,6.1973895 1.1949418,6.3784906 0.2706049,6.6194325 -0.65373201,6.8603745 -1.5471448,7.1411867 -2.2747216,7.3057401 -3.0022985,7.4702936 -3.5457421,7.4929039 -3.8650008,7.2147986 -4.1842595,6.9366932 -4.2878164,6.3574684 -4.3156296,5.5369069 c -0.027813,-0.8205615 -0.00225,-1.8648483 0.018681,-3.0317227 0.00293,-0.1630901 0.00615,-0.326519 0.010002,-0.4899908 0,-2e-7 0,-4e-7 0,-7e-7 0.026263,-1.12853063 0.1134167,-2.23115271 0.3846006,-3.1586443 0.271184,-0.9274916 0.7275975,-1.6580209 1.2060946,-2.1255015 0.4784971,-0.4674806 0.9444431,-0.6782463 1.2446537,-0.7978737 0.3002107,-0.1196274 0.4228491,-0.1744353 0.63068196,-0.2805869 0.20783287,-0.1061515 0.55240066,-0.2458388 1.24582564,-0.2483442 0.693425,-0.00251 1.728794,0.1593065 2.8213526,0.5782759 1.0925586,0.4189695 2.2000074,1.0886077 2.968198,1.8328365 0.7681906,0.7442289 1.18944,1.52798918 1.2751042,2.27574002 0,1.6e-7 0,3.1e-7 0,4.7e-7 0.012392,0.10830287 0.01836,0.2164333 0.018268,0.32484627 0,0 0,0 0,0 z"
       sodipodi:ry="10.850187"
       sodipodi:rx="6.9642859"
       sodipodi:cy="0.41071418"
       sodipodi:cx="0.53571427"
       id="path3900-5-5-5"
       style="color:#000000;fill:#ffdaab;fill-opacity:1;stroke:#464646;stroke-width:0.37751633;stroke-miterlimit:4;stroke-opacity:1;stroke-dasharray:none;marker:none;visibility:visible;display:inline;overflow:visible;enable-background:accumulate"
       sodipodi:type="arc"
       inkscape:path-effect="#path-effect4021-8" />
    <path
       transform="matrix(-0.15084977,-0.5730539,0.69403339,-0.19135712,24.601397,1029.8389)"
       d="m 6.8090988,0.41071418 a 6.2733846,5.625 0 1 1 -12.5467691,0 6.2733846,5.625 0 1 1 12.5467691,0 z"
       sodipodi:ry="5.625"
       sodipodi:rx="6.2733846"
       sodipodi:cy="0.41071418"
       sodipodi:cx="0.53571427"
       id="path3900-2-4"
       style="color:#000000;fill:#ffabab;fill-opacity:1;stroke:#464646;stroke-width:0.81795204;stroke-miterlimit:4;stroke-opacity:1;stroke-dasharray:none;marker:none;visibility:visible;display:inline;overflow:visible;enable-background:accumulate"
       sodipodi:type="arc"
       inkscape:path-effect="#path-effect4023-9" />
    <text
       xml:space="preserve"
       style="font-size:78.80399323px;font-style:normal;font-variant:normal;font-weight:normal;font-stretch:normal;line-height:125%;letter-spacing:0px;word-spacing:0px;fill:#000000;fill-opacity:1;stroke:none;font-family:Calibri;-inkscape-font-specification:Calibri"
       x="-3.6643543"
       y="1132.2826"
       id="text4585"
       sodipodi:linespacing="125%"
       transform="scale(1.0769907,0.92851313)"><tspan
         sodipodi:role="line"
         id="tspan4587"
         x="-3.6643543"
         y="1132.2826">C</tspan></text>
    <text
       xml:space="preserve"
       style="font-size:15.74060917px;font-style:normal;font-variant:normal;font-weight:normal;font-stretch:normal;line-height:125%;letter-spacing:0px;word-spacing:0px;fill:#000000;fill-opacity:1;stroke:none;font-family:Calibri;-inkscape-font-specification:Calibri"
       id="text4634"
       sodipodi:linespacing="125%"
       y="1042.1692"
       x="13.886128"
       transform="scale(0.9999989,1.0000011)"><tspan
         sodipodi:role="line"
         id="tspan4636"
         x="13.886128"
         y="1042.1692"
         style="font-weight:bold;-inkscape-font-specification:Calibri Bold">AD</tspan></text>
    <text
       xml:space="preserve"
       style="font-size:19.4913826px;font-style:normal;font-variant:normal;font-weight:normal;font-stretch:normal;line-height:125%;letter-spacing:0px;word-spacing:0px;fill:#000000;fill-opacity:1;stroke:none;font-family:Calibri;-inkscape-font-specification:Calibri"
       x="23.119402"
       y="1041.8684"
       id="text4638"
       sodipodi:linespacing="125%"
       transform="scale(0.9999989,1.0000011)"><tspan
         sodipodi:role="line"
         id="tspan4640"
         x="23.119402"
         y="1041.8684">i</tspan></text>
    <path
       style="color:#000000;fill:none;stroke:#000000;stroke-width:1.60269821;stroke-miterlimit:4;stroke-opacity:1;stroke-dasharray:none;marker:none;visibility:visible;display:inline;overflow:visible;enable-background:accumulate"
       d="m 38.318013,1020.1134 c -1.079398,1.6352 -2.43565,3.1447 -3.071724,5.0269 -0.445398,1.9355 0.670344,3.7225 1.516764,5.3713 0.923684,1.9971 1.637935,4.1134 1.963809,6.2925 0.142887,1.2812 -0.003,2.8037 -1.131036,3.6248 -0.73948,0.6214 -1.678098,0.9274 -2.594006,1.1815"
       id="path3900-5-1-1-9-3"
       inkscape:connector-curvature="0" />
    <path
       style="fill:none;stroke:#000000;stroke-width:1.06846547px;stroke-linecap:butt;stroke-linejoin:miter;stroke-opacity:1;marker-end:url(#Arrow1Send)"
       d="m 33.87633,1015.9093 -7.083728,11.5364"
       id="path4730"
       inkscape:connector-curvature="0" />
  </g>
</svg>
